<mxfile host="app.diagrams.net" modified="2021-05-08T14:33:36.219Z" agent="5.0 (Windows NT 10.0; Win64; x64) AppleWebKit/537.36 (KHTML, like Gecko) Chrome/90.0.4430.93 Safari/537.36" etag="rwB0VqlVGms2qTi2DlsJ" version="14.6.10" type="github">
  <diagram id="bO8thThMxF54w2DhpSRt" name="Page-1">
    <mxGraphModel dx="1695" dy="450" grid="1" gridSize="10" guides="1" tooltips="1" connect="1" arrows="1" fold="1" page="1" pageScale="1" pageWidth="827" pageHeight="1169" math="0" shadow="0">
      <root>
        <mxCell id="0" />
        <mxCell id="1" parent="0" />
        <mxCell id="TG_0mJdtD9ZKglMlRnKU-30" value="多个智能合约" style="swimlane;html=1;childLayout=stackLayout;resizeParent=1;resizeParentMax=0;startSize=20;" vertex="1" parent="1">
          <mxGeometry x="80" y="105" width="830" height="510" as="geometry" />
        </mxCell>
        <mxCell id="TG_0mJdtD9ZKglMlRnKU-31" value="写NFT" style="swimlane;html=1;startSize=20;" vertex="1" parent="TG_0mJdtD9ZKglMlRnKU-30">
          <mxGeometry y="20" width="190" height="490" as="geometry" />
        </mxCell>
        <mxCell id="TG_0mJdtD9ZKglMlRnKU-59" value="文章1、2、3" style="strokeWidth=2;html=1;shape=mxgraph.flowchart.start_2;whiteSpace=wrap;" vertex="1" parent="TG_0mJdtD9ZKglMlRnKU-31">
          <mxGeometry x="50" y="55" width="60" height="60" as="geometry" />
        </mxCell>
        <mxCell id="TG_0mJdtD9ZKglMlRnKU-60" value="编写：addAticle" style="verticalLabelPosition=middle;verticalAlign=middle;html=1;shape=process;whiteSpace=wrap;rounded=1;size=0.14;arcSize=6;labelPosition=center;align=center;" vertex="1" parent="TG_0mJdtD9ZKglMlRnKU-31">
          <mxGeometry x="30" y="165" width="100" height="60" as="geometry" />
        </mxCell>
        <mxCell id="TG_0mJdtD9ZKglMlRnKU-61" value="查询创作贡献：balanceOf" style="verticalLabelPosition=middle;verticalAlign=middle;html=1;shape=process;whiteSpace=wrap;rounded=1;size=0.14;arcSize=6;labelPosition=center;align=center;" vertex="1" parent="TG_0mJdtD9ZKglMlRnKU-31">
          <mxGeometry x="30" y="285" width="120" height="60" as="geometry" />
        </mxCell>
        <mxCell id="TG_0mJdtD9ZKglMlRnKU-62" value="查询创作人：ownerOf" style="verticalLabelPosition=middle;verticalAlign=middle;html=1;shape=process;whiteSpace=wrap;rounded=1;size=0.14;arcSize=6;labelPosition=center;align=center;" vertex="1" parent="TG_0mJdtD9ZKglMlRnKU-31">
          <mxGeometry x="30" y="385" width="120" height="60" as="geometry" />
        </mxCell>
        <mxCell id="TG_0mJdtD9ZKglMlRnKU-87" value="" style="edgeStyle=none;rounded=0;orthogonalLoop=1;jettySize=auto;html=1;entryX=0.5;entryY=0;entryDx=0;entryDy=0;" edge="1" parent="TG_0mJdtD9ZKglMlRnKU-31" source="TG_0mJdtD9ZKglMlRnKU-59" target="TG_0mJdtD9ZKglMlRnKU-60">
          <mxGeometry relative="1" as="geometry">
            <mxPoint x="80" y="85" as="targetPoint" />
          </mxGeometry>
        </mxCell>
        <mxCell id="TG_0mJdtD9ZKglMlRnKU-32" value="编辑NFT" style="swimlane;html=1;startSize=20;" vertex="1" parent="TG_0mJdtD9ZKglMlRnKU-30">
          <mxGeometry x="190" y="20" width="210" height="490" as="geometry" />
        </mxCell>
        <mxCell id="TG_0mJdtD9ZKglMlRnKU-68" value="编辑：editAticle" style="verticalLabelPosition=middle;verticalAlign=middle;html=1;shape=process;whiteSpace=wrap;rounded=1;size=0.14;arcSize=6;labelPosition=center;align=center;" vertex="1" parent="TG_0mJdtD9ZKglMlRnKU-32">
          <mxGeometry x="70" y="165" width="100" height="60" as="geometry" />
        </mxCell>
        <mxCell id="TG_0mJdtD9ZKglMlRnKU-97" value="查询编辑贡献：balanceOf" style="verticalLabelPosition=middle;verticalAlign=middle;html=1;shape=process;whiteSpace=wrap;rounded=1;size=0.14;arcSize=6;labelPosition=center;align=center;" vertex="1" parent="TG_0mJdtD9ZKglMlRnKU-32">
          <mxGeometry x="50" y="285" width="130" height="60" as="geometry" />
        </mxCell>
        <mxCell id="TG_0mJdtD9ZKglMlRnKU-99" value="查询编辑人：ownerOf" style="verticalLabelPosition=middle;verticalAlign=middle;html=1;shape=process;whiteSpace=wrap;rounded=1;size=0.14;arcSize=6;labelPosition=center;align=center;" vertex="1" parent="TG_0mJdtD9ZKglMlRnKU-32">
          <mxGeometry x="50" y="385" width="120" height="60" as="geometry" />
        </mxCell>
        <mxCell id="TG_0mJdtD9ZKglMlRnKU-39" value="宣发NFT" style="swimlane;html=1;startSize=20;" vertex="1" parent="TG_0mJdtD9ZKglMlRnKU-30">
          <mxGeometry x="400" y="20" width="230" height="490" as="geometry" />
        </mxCell>
        <mxCell id="TG_0mJdtD9ZKglMlRnKU-85" value="宣发：popularAticle" style="verticalLabelPosition=middle;verticalAlign=middle;html=1;shape=process;whiteSpace=wrap;rounded=1;size=0.14;arcSize=6;labelPosition=center;align=center;" vertex="1" parent="TG_0mJdtD9ZKglMlRnKU-39">
          <mxGeometry x="70" y="165" width="100" height="60" as="geometry" />
        </mxCell>
        <mxCell id="TG_0mJdtD9ZKglMlRnKU-98" value="查询：balanceOf" style="verticalLabelPosition=middle;verticalAlign=middle;html=1;shape=process;whiteSpace=wrap;rounded=1;size=0.14;arcSize=6;labelPosition=center;align=center;" vertex="1" parent="TG_0mJdtD9ZKglMlRnKU-39">
          <mxGeometry x="65" y="285" width="100" height="60" as="geometry" />
        </mxCell>
        <mxCell id="TG_0mJdtD9ZKglMlRnKU-100" value="查询：ownerOf" style="verticalLabelPosition=middle;verticalAlign=middle;html=1;shape=process;whiteSpace=wrap;rounded=1;size=0.14;arcSize=6;labelPosition=center;align=center;" vertex="1" parent="TG_0mJdtD9ZKglMlRnKU-39">
          <mxGeometry x="65" y="385" width="100" height="60" as="geometry" />
        </mxCell>
        <mxCell id="TG_0mJdtD9ZKglMlRnKU-111" value="每个token价值2" style="text;html=1;align=center;verticalAlign=middle;resizable=0;points=[];autosize=1;strokeColor=none;" vertex="1" parent="TG_0mJdtD9ZKglMlRnKU-39">
          <mxGeometry x="10" y="25" width="100" height="20" as="geometry" />
        </mxCell>
        <mxCell id="TG_0mJdtD9ZKglMlRnKU-40" value="结算合约" style="swimlane;html=1;startSize=20;" vertex="1" parent="TG_0mJdtD9ZKglMlRnKU-30">
          <mxGeometry x="630" y="20" width="200" height="490" as="geometry" />
        </mxCell>
        <mxCell id="TG_0mJdtD9ZKglMlRnKU-92" value="结算：calc" style="verticalLabelPosition=middle;verticalAlign=middle;html=1;shape=process;whiteSpace=wrap;rounded=1;size=0.14;arcSize=6;labelPosition=center;align=center;" vertex="1" parent="TG_0mJdtD9ZKglMlRnKU-40">
          <mxGeometry x="40" y="165" width="100" height="60" as="geometry" />
        </mxCell>
        <mxCell id="TG_0mJdtD9ZKglMlRnKU-89" value="" style="edgeStyle=none;rounded=0;orthogonalLoop=1;jettySize=auto;html=1;entryX=0;entryY=0.5;entryDx=0;entryDy=0;" edge="1" parent="TG_0mJdtD9ZKglMlRnKU-30" source="TG_0mJdtD9ZKglMlRnKU-60" target="TG_0mJdtD9ZKglMlRnKU-68">
          <mxGeometry relative="1" as="geometry">
            <mxPoint x="200" y="215" as="targetPoint" />
          </mxGeometry>
        </mxCell>
        <mxCell id="TG_0mJdtD9ZKglMlRnKU-91" value="" style="edgeStyle=none;rounded=0;orthogonalLoop=1;jettySize=auto;html=1;entryX=0;entryY=0.5;entryDx=0;entryDy=0;" edge="1" parent="TG_0mJdtD9ZKglMlRnKU-30" source="TG_0mJdtD9ZKglMlRnKU-68" target="TG_0mJdtD9ZKglMlRnKU-85">
          <mxGeometry relative="1" as="geometry">
            <mxPoint x="430" y="215" as="targetPoint" />
          </mxGeometry>
        </mxCell>
        <mxCell id="TG_0mJdtD9ZKglMlRnKU-94" value="" style="edgeStyle=none;rounded=0;orthogonalLoop=1;jettySize=auto;html=1;entryX=0;entryY=0.5;entryDx=0;entryDy=0;" edge="1" parent="TG_0mJdtD9ZKglMlRnKU-30" source="TG_0mJdtD9ZKglMlRnKU-85" target="TG_0mJdtD9ZKglMlRnKU-92">
          <mxGeometry relative="1" as="geometry">
            <mxPoint x="650" y="215" as="targetPoint" />
          </mxGeometry>
        </mxCell>
        <mxCell id="TG_0mJdtD9ZKglMlRnKU-96" value="" style="rounded=0;orthogonalLoop=1;jettySize=auto;html=1;entryX=0.5;entryY=0;entryDx=0;entryDy=0;edgeStyle=orthogonalEdgeStyle;" edge="1" parent="TG_0mJdtD9ZKglMlRnKU-30" source="TG_0mJdtD9ZKglMlRnKU-92" target="TG_0mJdtD9ZKglMlRnKU-98">
          <mxGeometry relative="1" as="geometry">
            <mxPoint x="720" y="325" as="targetPoint" />
            <Array as="points">
              <mxPoint x="720" y="285" />
              <mxPoint x="515" y="285" />
            </Array>
          </mxGeometry>
        </mxCell>
        <mxCell id="TG_0mJdtD9ZKglMlRnKU-104" value="" style="edgeStyle=none;rounded=0;orthogonalLoop=1;jettySize=auto;html=1;entryX=0.5;entryY=0;entryDx=0;entryDy=0;" edge="1" parent="TG_0mJdtD9ZKglMlRnKU-30" target="TG_0mJdtD9ZKglMlRnKU-97">
          <mxGeometry relative="1" as="geometry">
            <mxPoint x="305" y="285" as="sourcePoint" />
            <mxPoint x="80" y="185" as="targetPoint" />
            <Array as="points" />
          </mxGeometry>
        </mxCell>
        <mxCell id="TG_0mJdtD9ZKglMlRnKU-105" value="" style="edgeStyle=none;rounded=0;orthogonalLoop=1;jettySize=auto;html=1;entryX=1;entryY=0.5;entryDx=0;entryDy=0;" edge="1" parent="TG_0mJdtD9ZKglMlRnKU-30" target="TG_0mJdtD9ZKglMlRnKU-62">
          <mxGeometry relative="1" as="geometry">
            <mxPoint x="170" y="285" as="sourcePoint" />
            <mxPoint x="390" y="330" as="targetPoint" />
            <Array as="points">
              <mxPoint x="170" y="435" />
            </Array>
          </mxGeometry>
        </mxCell>
        <mxCell id="TG_0mJdtD9ZKglMlRnKU-106" value="" style="edgeStyle=none;rounded=0;orthogonalLoop=1;jettySize=auto;html=1;entryX=0.99;entryY=0.65;entryDx=0;entryDy=0;entryPerimeter=0;" edge="1" parent="TG_0mJdtD9ZKglMlRnKU-30" target="TG_0mJdtD9ZKglMlRnKU-99">
          <mxGeometry relative="1" as="geometry">
            <mxPoint x="380" y="285" as="sourcePoint" />
            <mxPoint x="390" y="330" as="targetPoint" />
            <Array as="points">
              <mxPoint x="380" y="444" />
            </Array>
          </mxGeometry>
        </mxCell>
        <mxCell id="TG_0mJdtD9ZKglMlRnKU-107" value="" style="edgeStyle=none;rounded=0;orthogonalLoop=1;jettySize=auto;html=1;entryX=1;entryY=0.5;entryDx=0;entryDy=0;" edge="1" parent="TG_0mJdtD9ZKglMlRnKU-30" target="TG_0mJdtD9ZKglMlRnKU-100">
          <mxGeometry relative="1" as="geometry">
            <mxPoint x="600" y="285" as="sourcePoint" />
            <mxPoint x="439" y="469" as="targetPoint" />
            <Array as="points">
              <mxPoint x="600" y="375" />
              <mxPoint x="600" y="435" />
            </Array>
          </mxGeometry>
        </mxCell>
        <mxCell id="TG_0mJdtD9ZKglMlRnKU-35" value="文章1" style="strokeWidth=2;html=1;shape=mxgraph.flowchart.start_2;whiteSpace=wrap;" vertex="1" parent="1">
          <mxGeometry x="-210" y="100" width="60" height="60" as="geometry" />
        </mxCell>
        <mxCell id="TG_0mJdtD9ZKglMlRnKU-46" value="" style="rounded=0;orthogonalLoop=1;jettySize=auto;html=1;entryX=0.5;entryY=0;entryDx=0;entryDy=0;" edge="1" parent="1" source="TG_0mJdtD9ZKglMlRnKU-35" target="TG_0mJdtD9ZKglMlRnKU-41">
          <mxGeometry relative="1" as="geometry">
            <mxPoint x="150" y="170" as="targetPoint" />
          </mxGeometry>
        </mxCell>
        <mxCell id="TG_0mJdtD9ZKglMlRnKU-37" value="文章2" style="strokeWidth=2;html=1;shape=mxgraph.flowchart.start_2;whiteSpace=wrap;" vertex="1" parent="1">
          <mxGeometry x="-140" y="90" width="60" height="60" as="geometry" />
        </mxCell>
        <mxCell id="TG_0mJdtD9ZKglMlRnKU-48" value="" style="rounded=0;orthogonalLoop=1;jettySize=auto;html=1;entryX=0.5;entryY=0;entryDx=0;entryDy=0;" edge="1" parent="1" source="TG_0mJdtD9ZKglMlRnKU-37" target="TG_0mJdtD9ZKglMlRnKU-41">
          <mxGeometry relative="1" as="geometry">
            <mxPoint x="150" y="310" as="targetPoint" />
          </mxGeometry>
        </mxCell>
        <mxCell id="TG_0mJdtD9ZKglMlRnKU-38" value="文章3" style="strokeWidth=2;html=1;shape=mxgraph.flowchart.start_2;whiteSpace=wrap;" vertex="1" parent="1">
          <mxGeometry x="-70" y="100" width="60" height="60" as="geometry" />
        </mxCell>
        <mxCell id="TG_0mJdtD9ZKglMlRnKU-50" value="" style="rounded=0;orthogonalLoop=1;jettySize=auto;html=1;entryX=0.5;entryY=0;entryDx=0;entryDy=0;exitX=0.267;exitY=0.95;exitDx=0;exitDy=0;exitPerimeter=0;" edge="1" parent="1" source="TG_0mJdtD9ZKglMlRnKU-38" target="TG_0mJdtD9ZKglMlRnKU-41">
          <mxGeometry relative="1" as="geometry">
            <mxPoint x="140" y="440" as="targetPoint" />
          </mxGeometry>
        </mxCell>
        <mxCell id="TG_0mJdtD9ZKglMlRnKU-41" value="编写：addAticle" style="verticalLabelPosition=middle;verticalAlign=middle;html=1;shape=process;whiteSpace=wrap;rounded=1;size=0.14;arcSize=6;labelPosition=center;align=center;" vertex="1" parent="1">
          <mxGeometry x="-160" y="240" width="100" height="60" as="geometry" />
        </mxCell>
        <mxCell id="TG_0mJdtD9ZKglMlRnKU-44" value="" style="edgeStyle=orthogonalEdgeStyle;rounded=0;orthogonalLoop=1;jettySize=auto;html=1;" edge="1" parent="1" source="TG_0mJdtD9ZKglMlRnKU-41">
          <mxGeometry relative="1" as="geometry">
            <mxPoint x="-110" y="350" as="targetPoint" />
          </mxGeometry>
        </mxCell>
        <mxCell id="TG_0mJdtD9ZKglMlRnKU-53" value="" style="edgeStyle=none;rounded=0;orthogonalLoop=1;jettySize=auto;html=1;" edge="1" parent="1" source="TG_0mJdtD9ZKglMlRnKU-51" target="TG_0mJdtD9ZKglMlRnKU-52">
          <mxGeometry relative="1" as="geometry" />
        </mxCell>
        <mxCell id="TG_0mJdtD9ZKglMlRnKU-51" value="编辑：&lt;br&gt;editArticle" style="verticalLabelPosition=middle;verticalAlign=middle;html=1;shape=process;whiteSpace=wrap;rounded=1;size=0.14;arcSize=6;labelPosition=center;align=center;" vertex="1" parent="1">
          <mxGeometry x="-160" y="350" width="100" height="60" as="geometry" />
        </mxCell>
        <mxCell id="TG_0mJdtD9ZKglMlRnKU-55" value="" style="edgeStyle=none;rounded=0;orthogonalLoop=1;jettySize=auto;html=1;" edge="1" parent="1" source="TG_0mJdtD9ZKglMlRnKU-52" target="TG_0mJdtD9ZKglMlRnKU-54">
          <mxGeometry relative="1" as="geometry" />
        </mxCell>
        <mxCell id="TG_0mJdtD9ZKglMlRnKU-52" value="宣发：&lt;br&gt;popularArticle" style="verticalLabelPosition=middle;verticalAlign=middle;html=1;shape=process;whiteSpace=wrap;rounded=1;size=0.14;arcSize=6;labelPosition=center;align=center;" vertex="1" parent="1">
          <mxGeometry x="-160" y="460" width="100" height="60" as="geometry" />
        </mxCell>
        <mxCell id="TG_0mJdtD9ZKglMlRnKU-57" value="" style="edgeStyle=none;rounded=0;orthogonalLoop=1;jettySize=auto;html=1;" edge="1" parent="1" source="TG_0mJdtD9ZKglMlRnKU-54" target="TG_0mJdtD9ZKglMlRnKU-56">
          <mxGeometry relative="1" as="geometry" />
        </mxCell>
        <mxCell id="TG_0mJdtD9ZKglMlRnKU-54" value="结算：&lt;br&gt;calcArticle" style="verticalLabelPosition=middle;verticalAlign=middle;html=1;shape=process;whiteSpace=wrap;rounded=1;size=0.14;arcSize=6;labelPosition=center;align=center;" vertex="1" parent="1">
          <mxGeometry x="-160" y="555" width="100" height="60" as="geometry" />
        </mxCell>
        <mxCell id="TG_0mJdtD9ZKglMlRnKU-56" value="结束" style="ellipse;whiteSpace=wrap;html=1;rounded=1;arcSize=6;" vertex="1" parent="1">
          <mxGeometry x="-170" y="695" width="120" height="60" as="geometry" />
        </mxCell>
        <mxCell id="TG_0mJdtD9ZKglMlRnKU-58" value="单个NFT&lt;br&gt;每篇文章一个token&lt;br&gt;每个流程修改token的属性" style="text;html=1;align=center;verticalAlign=middle;resizable=0;points=[];autosize=1;strokeColor=none;" vertex="1" parent="1">
          <mxGeometry x="-205" y="15" width="150" height="50" as="geometry" />
        </mxCell>
        <mxCell id="TG_0mJdtD9ZKglMlRnKU-102" value="" style="edgeStyle=orthogonalEdgeStyle;rounded=0;orthogonalLoop=1;jettySize=auto;html=1;entryX=0.5;entryY=0;entryDx=0;entryDy=0;" edge="1" parent="1" target="TG_0mJdtD9ZKglMlRnKU-61">
          <mxGeometry relative="1" as="geometry">
            <mxPoint x="800" y="350" as="sourcePoint" />
            <mxPoint x="160" y="260" as="targetPoint" />
            <Array as="points">
              <mxPoint x="800" y="390" />
              <mxPoint x="170" y="390" />
            </Array>
          </mxGeometry>
        </mxCell>
        <mxCell id="TG_0mJdtD9ZKglMlRnKU-108" value="多个智能合约&lt;br&gt;每篇文章一个id&lt;br&gt;每个流程产生一个token&lt;br&gt;每个token有其固定的价值" style="text;html=1;align=center;verticalAlign=middle;resizable=0;points=[];autosize=1;strokeColor=none;" vertex="1" parent="1">
          <mxGeometry x="80" y="5" width="150" height="60" as="geometry" />
        </mxCell>
        <mxCell id="TG_0mJdtD9ZKglMlRnKU-109" value="每个token价值10" style="text;html=1;align=center;verticalAlign=middle;resizable=0;points=[];autosize=1;strokeColor=none;" vertex="1" parent="1">
          <mxGeometry x="145" y="150" width="110" height="20" as="geometry" />
        </mxCell>
        <mxCell id="TG_0mJdtD9ZKglMlRnKU-110" value="每个token价值5" style="text;html=1;align=center;verticalAlign=middle;resizable=0;points=[];autosize=1;strokeColor=none;" vertex="1" parent="1">
          <mxGeometry x="310" y="150" width="100" height="20" as="geometry" />
        </mxCell>
      </root>
    </mxGraphModel>
  </diagram>
</mxfile>
